<svg width="221" height="49" viewBox="0 0 221 49" fill="none" xmlns="http://www.w3.org/2000/svg">
<path fill-rule="evenodd" clip-rule="evenodd" d="M39.4388 47.593C47.3599 45.4706 53.3055 39.6557 55.9201 32.4965C58.2176 26.4685 58.0608 19.5179 55.0105 13.3341C53.9694 13.9744 52.6797 14.624 51.1013 15.2253C51.7652 14.2312 52.7371 12.7073 53.7214 11.0412C49.7301 4.75895 43.2646 0.959068 36.4097 0.216904C33.3236 -0.200583 30.1052 -0.0256408 26.9089 0.830804C13.9959 4.29084 6.33274 17.5638 9.79278 30.4769C9.81188 30.5481 9.83129 30.6193 9.85099 30.6903C24.301 27.2383 31.7228 24.7631 33.9471 23.774L31.5363 21.7006L32.297 21.2262L36.0964 23.083L38.1884 21.7784C38.3397 21.6841 38.5223 21.6537 38.696 21.694C38.8697 21.7342 39.0203 21.8419 39.1147 21.9932C39.2091 22.1445 39.2395 22.3271 39.1992 22.5008C39.1589 22.6745 39.0513 22.8251 38.9 22.9195L36.808 24.2241L36.8038 28.4529L36.0431 28.9273L35.2583 25.9134C28.6458 31.563 20.3833 36.2763 14.2351 39.2965C20.0547 46.5953 29.8461 50.1634 39.4388 47.593Z" fill="url(#paint0_radial)"/>
<path d="M3.58606 18.8113L4.39118 21.2892H6.9966L4.88877 22.8206L5.69389 25.2986L3.58606 23.7671L1.47823 25.2986L2.28335 22.8206L0.175514 21.2892H2.78094L3.58606 18.8113Z" fill="#042C46"/>
<path d="M8.96513 5.81186L9.36769 7.05081H10.6704L9.61649 7.81653L10.019 9.05548L8.96513 8.28976L7.91122 9.05548L8.31378 7.81653L7.25986 7.05081H8.56257L8.96513 5.81186Z" fill="#042C46"/>
<path d="M58.7217 34.9486L59.5268 37.4265H62.1323L60.0244 38.9579L60.8295 41.4358L58.7217 39.9044L56.6139 41.4358L57.419 38.9579L55.3112 37.4265H57.9166L58.7217 34.9486Z" fill="#042C46"/>
<path d="M48.4118 24.1904L48.8143 25.4294H50.117L49.0631 26.1951L49.4657 27.434L48.4118 26.6683L47.3579 27.434L47.7604 26.1951L46.7065 25.4294H48.0092L48.4118 24.1904Z" fill="#FAFAFA"/>
<path d="M33.171 5.81186L33.9761 8.28976H36.5816L34.4737 9.82119L35.2789 12.2991L33.171 10.7677L31.0632 12.2991L31.8683 9.82119L29.7605 8.28976H32.3659L33.171 5.81186Z" fill="#FAFAFA"/>
<path d="M28.6885 36.7416L29.091 37.9806H30.3937L29.3398 38.7463L29.7424 39.9852L28.6885 39.2195L27.6346 39.9852L28.0371 38.7463L26.9832 37.9806H28.2859L28.6885 36.7416Z" fill="#FAFAFA"/>
<path d="M89.2678 12.24V15.9771H81.9649V36H77.6106V15.9771H70.3078V12.24H89.2678Z" fill="#042C46"/>
<path d="M99.1112 12C102.54 12 105.157 12.6286 106.963 13.8857C108.791 15.1429 109.706 17.0629 109.706 19.6457C109.706 22.8686 108.117 25.0514 104.94 26.1943C105.374 26.72 105.866 27.36 106.414 28.1143C106.963 28.8686 107.523 29.6914 108.094 30.5829C108.666 31.4514 109.214 32.3543 109.74 33.2914C110.266 34.2057 110.734 35.1086 111.146 36H106.311C105.877 35.1771 105.408 34.3543 104.906 33.5314C104.403 32.6857 103.888 31.8743 103.363 31.0971C102.86 30.2971 102.357 29.5543 101.854 28.8686C101.351 28.16 100.883 27.5314 100.448 26.9829C100.128 27.0057 99.8541 27.0171 99.6255 27.0171C99.397 27.0171 99.1798 27.0171 98.9741 27.0171H96.8827V36H92.5627V12.5829C93.6141 12.3543 94.7341 12.2057 95.9227 12.1371C97.1112 12.0457 98.1741 12 99.1112 12ZM99.4198 15.7371C98.5055 15.7371 97.6598 15.7714 96.8827 15.84V23.52H98.7684C99.8198 23.52 100.746 23.4629 101.546 23.3486C102.346 23.2343 103.008 23.0286 103.534 22.7314C104.083 22.4343 104.494 22.0343 104.768 21.5314C105.043 21.0286 105.18 20.3886 105.18 19.6114C105.18 18.88 105.043 18.2629 104.768 17.76C104.494 17.2571 104.094 16.8571 103.568 16.56C103.066 16.2629 102.46 16.0571 101.751 15.9429C101.043 15.8057 100.266 15.7371 99.4198 15.7371Z" fill="#042C46"/>
<path d="M131.135 36C130.815 35.0629 130.484 34.1371 130.141 33.2229C129.798 32.3086 129.467 31.3714 129.147 30.4114H119.135C118.815 31.3714 118.484 32.32 118.141 33.2571C117.821 34.1714 117.501 35.0857 117.181 36H112.69C113.581 33.4629 114.427 31.12 115.227 28.9714C116.027 26.8229 116.804 24.7886 117.558 22.8686C118.335 20.9486 119.101 19.12 119.855 17.3829C120.61 15.6457 121.387 13.9314 122.187 12.24H126.267C127.067 13.9314 127.844 15.6457 128.598 17.3829C129.353 19.12 130.107 20.9486 130.861 22.8686C131.638 24.7886 132.427 26.8229 133.227 28.9714C134.05 31.12 134.907 33.4629 135.798 36H131.135ZM124.141 16.8343C123.615 18.0457 123.01 19.52 122.324 21.2571C121.661 22.9943 120.964 24.88 120.233 26.9143H128.05C127.318 24.88 126.61 22.9829 125.924 21.2229C125.238 19.4629 124.644 18 124.141 16.8343Z" fill="#042C46"/>
<path d="M143.715 36C142.001 32.2971 140.344 28.4229 138.744 24.3771C137.167 20.3314 135.692 16.2857 134.321 12.24H139.087C139.635 13.84 140.195 15.4743 140.767 17.1429C141.338 18.8114 141.909 20.4571 142.481 22.08C143.052 23.68 143.624 25.2343 144.195 26.7429C144.767 28.2514 145.327 29.6343 145.875 30.8914C146.401 29.6343 146.949 28.2629 147.521 26.7771C148.092 25.2686 148.664 23.7029 149.235 22.08C149.829 20.4571 150.412 18.8114 150.984 17.1429C151.555 15.4743 152.104 13.84 152.629 12.24H157.258C155.864 16.2857 154.378 20.3314 152.801 24.3771C151.224 28.4229 149.578 32.2971 147.864 36H143.715Z" fill="#042C46"/>
<path d="M160.331 36V12.24H175.588V15.9086H164.651V21.7714H174.388V25.3714H164.651V32.3314H176.411V36H160.331Z" fill="#042C46"/>
<path d="M195.437 32.2629V36H180.42V12.24H184.74V32.2629H195.437Z" fill="#042C46"/>
<path d="M215.377 36C215.057 35.0629 214.725 34.1371 214.382 33.2229C214.039 32.3086 213.708 31.3714 213.388 30.4114H203.377C203.057 31.3714 202.725 32.32 202.382 33.2571C202.062 34.1714 201.742 35.0857 201.422 36H196.931C197.822 33.4629 198.668 31.12 199.468 28.9714C200.268 26.8229 201.045 24.7886 201.799 22.8686C202.577 20.9486 203.342 19.12 204.097 17.3829C204.851 15.6457 205.628 13.9314 206.428 12.24H210.508C211.308 13.9314 212.085 15.6457 212.839 17.3829C213.594 19.12 214.348 20.9486 215.102 22.8686C215.879 24.7886 216.668 26.8229 217.468 28.9714C218.291 31.12 219.148 33.4629 220.039 36H215.377ZM208.382 16.8343C207.857 18.0457 207.251 19.52 206.565 21.2571C205.902 22.9943 205.205 24.88 204.474 26.9143H212.291C211.559 24.88 210.851 22.9829 210.165 21.2229C209.479 19.4629 208.885 18 208.382 16.8343Z" fill="#042C46"/>
<defs>
<radialGradient id="paint0_radial" cx="0" cy="0" r="1" gradientUnits="userSpaceOnUse" gradientTransform="translate(59.6882 7.28203) rotate(151.54) scale(50.0936 41.8255)">
<stop stop-color="#FFDFA0"/>
<stop offset="0.648958" stop-color="#FFC076"/>
<stop offset="1" stop-color="#FF8B04"/>
</radialGradient>
</defs>
</svg>
