<svg width="219" height="56" viewBox="0 0 219 56" fill="none" xmlns="http://www.w3.org/2000/svg">
<circle cx="28" cy="28" r="28" fill="#FAFAFA"/>
<path fill-rule="evenodd" clip-rule="evenodd" d="M34.4769 51.593C42.3979 49.4706 48.3435 43.6557 50.9581 36.4965C53.2556 30.4685 53.0989 23.5179 50.0485 17.3341C49.0074 17.9744 47.7177 18.624 46.1394 19.2253C46.8032 18.2312 47.7752 16.7073 48.7595 15.0412C44.7681 8.75895 38.3026 4.95907 31.4477 4.2169C28.3616 3.79942 25.1433 3.97436 21.947 4.8308C9.03393 8.29084 1.37077 21.5638 4.8308 34.4769C4.84991 34.5481 4.86931 34.6193 4.88901 34.6903C19.339 31.2383 26.7608 28.7631 28.9851 27.774L26.5743 25.7006L27.335 25.2262L31.1344 27.083L33.2264 25.7784C33.3777 25.6841 33.5603 25.6537 33.734 25.694C33.9077 25.7342 34.0584 25.8419 34.1527 25.9932C34.2471 26.1445 34.2775 26.3271 34.2372 26.5008C34.1969 26.6745 34.0893 26.8251 33.938 26.9195L31.846 28.2241L31.8418 32.4529L31.0811 32.9273L30.2964 29.9134C23.6838 35.563 15.4213 40.2763 9.27316 43.2965C15.0927 50.5953 24.8841 54.1634 34.4769 51.593Z" fill="url(#paint0_radial)"/>
<path d="M43.4498 28.1904L43.8524 29.4294H45.1551L44.1012 30.1951L44.5037 31.434L43.4498 30.6683L42.3959 31.434L42.7984 30.1951L41.7445 29.4294H43.0472L43.4498 28.1904Z" fill="#FAFAFA"/>
<path d="M28.2091 9.81186L29.0142 12.2898H31.6196L29.5118 13.8212L30.3169 16.2991L28.2091 14.7677L26.1012 16.2991L26.9063 13.8212L24.7985 12.2898H27.4039L28.2091 9.81186Z" fill="#FAFAFA"/>
<path d="M23.7265 40.7416L24.1291 41.9806H25.4318L24.3779 42.7463L24.7804 43.9852L23.7265 43.2195L22.6726 43.9852L23.0751 42.7463L22.0212 41.9806H23.3239L23.7265 40.7416Z" fill="#FAFAFA"/>
<path d="M87.4888 16.24V19.9771H80.1859V40H75.8316V19.9771H68.5288V16.24H87.4888Z" fill="#FAFAFA"/>
<path d="M97.3322 16C100.761 16 103.378 16.6286 105.184 17.8857C107.012 19.1429 107.927 21.0629 107.927 23.6457C107.927 26.8686 106.338 29.0514 103.161 30.1943C103.595 30.72 104.087 31.36 104.635 32.1143C105.184 32.8686 105.744 33.6914 106.315 34.5829C106.887 35.4514 107.435 36.3543 107.961 37.2914C108.487 38.2057 108.955 39.1086 109.367 40H104.532C104.098 39.1771 103.629 38.3543 103.127 37.5314C102.624 36.6857 102.109 35.8743 101.584 35.0971C101.081 34.2971 100.578 33.5543 100.075 32.8686C99.5722 32.16 99.1037 31.5314 98.6694 30.9829C98.3494 31.0057 98.0751 31.0171 97.8465 31.0171C97.618 31.0171 97.4008 31.0171 97.1951 31.0171H95.1037V40H90.7837V16.5829C91.8351 16.3543 92.9551 16.2057 94.1437 16.1371C95.3322 16.0457 96.3951 16 97.3322 16ZM97.6408 19.7371C96.7265 19.7371 95.8808 19.7714 95.1037 19.84V27.52H96.9894C98.0408 27.52 98.9665 27.4629 99.7665 27.3486C100.567 27.2343 101.229 27.0286 101.755 26.7314C102.304 26.4343 102.715 26.0343 102.989 25.5314C103.264 25.0286 103.401 24.3886 103.401 23.6114C103.401 22.88 103.264 22.2629 102.989 21.76C102.715 21.2571 102.315 20.8571 101.789 20.56C101.287 20.2629 100.681 20.0571 99.9722 19.9429C99.2637 19.8057 98.4865 19.7371 97.6408 19.7371Z" fill="#FAFAFA"/>
<path d="M129.356 40C129.036 39.0629 128.705 38.1371 128.362 37.2229C128.019 36.3086 127.688 35.3714 127.368 34.4114H117.356C117.036 35.3714 116.705 36.32 116.362 37.2571C116.042 38.1714 115.722 39.0857 115.402 40H110.911C111.802 37.4629 112.648 35.12 113.448 32.9714C114.248 30.8229 115.025 28.7886 115.779 26.8686C116.556 24.9486 117.322 23.12 118.076 21.3829C118.831 19.6457 119.608 17.9314 120.408 16.24H124.488C125.288 17.9314 126.065 19.6457 126.819 21.3829C127.574 23.12 128.328 24.9486 129.082 26.8686C129.859 28.7886 130.648 30.8229 131.448 32.9714C132.271 35.12 133.128 37.4629 134.019 40H129.356ZM122.362 20.8343C121.836 22.0457 121.231 23.52 120.545 25.2571C119.882 26.9943 119.185 28.88 118.454 30.9143H126.271C125.539 28.88 124.831 26.9829 124.145 25.2229C123.459 23.4629 122.865 22 122.362 20.8343Z" fill="#FAFAFA"/>
<path d="M141.936 40C140.222 36.2971 138.565 32.4229 136.965 28.3771C135.388 24.3314 133.913 20.2857 132.542 16.24H137.308C137.856 17.84 138.416 19.4743 138.988 21.1429C139.559 22.8114 140.13 24.4571 140.702 26.08C141.273 27.68 141.845 29.2343 142.416 30.7429C142.988 32.2514 143.548 33.6343 144.096 34.8914C144.622 33.6343 145.17 32.2629 145.742 30.7771C146.313 29.2686 146.885 27.7029 147.456 26.08C148.05 24.4571 148.633 22.8114 149.205 21.1429C149.776 19.4743 150.325 17.84 150.85 16.24H155.479C154.085 20.2857 152.599 24.3314 151.022 28.3771C149.445 32.4229 147.799 36.2971 146.085 40H141.936Z" fill="#FAFAFA"/>
<path d="M158.552 40V16.24H173.809V19.9086H162.872V25.7714H172.609V29.3714H162.872V36.3314H174.632V40H158.552Z" fill="#FAFAFA"/>
<path d="M193.658 36.2629V40H178.641V16.24H182.961V36.2629H193.658Z" fill="#FAFAFA"/>
<path d="M213.598 40C213.277 39.0629 212.946 38.1371 212.603 37.2229C212.26 36.3086 211.929 35.3714 211.609 34.4114H201.598C201.277 35.3714 200.946 36.32 200.603 37.2571C200.283 38.1714 199.963 39.0857 199.643 40H195.152C196.043 37.4629 196.889 35.12 197.689 32.9714C198.489 30.8229 199.266 28.7886 200.02 26.8686C200.798 24.9486 201.563 23.12 202.318 21.3829C203.072 19.6457 203.849 17.9314 204.649 16.24H208.729C209.529 17.9314 210.306 19.6457 211.06 21.3829C211.815 23.12 212.569 24.9486 213.323 26.8686C214.1 28.7886 214.889 30.8229 215.689 32.9714C216.512 35.12 217.369 37.4629 218.26 40H213.598ZM206.603 20.8343C206.077 22.0457 205.472 23.52 204.786 25.2571C204.123 26.9943 203.426 28.88 202.695 30.9143H210.512C209.78 28.88 209.072 26.9829 208.386 25.2229C207.7 23.4629 207.106 22 206.603 20.8343Z" fill="#FAFAFA"/>
<defs>
<radialGradient id="paint0_radial" cx="0" cy="0" r="1" gradientUnits="userSpaceOnUse" gradientTransform="translate(54.7262 11.282) rotate(151.54) scale(50.0936 41.8255)">
<stop offset="0.284375" stop-color="#53DD93"/>
<stop offset="0.64375" stop-color="#48C5C5"/>
<stop offset="1" stop-color="#2B77A2"/>
</radialGradient>
</defs>
</svg>
